<?xml version="1.0" encoding="utf-8"?>
<!-- Generator: Adobe Illustrator 23.0.1, SVG Export Plug-In . SVG Version: 6.00 Build 0)  -->
<!DOCTYPE svg PUBLIC "-//W3C//DTD SVG 1.1//EN" "http://www.w3.org/Graphics/SVG/1.1/DTD/svg11.dtd" [
	<!ENTITY ns_extend "http://ns.adobe.com/Extensibility/1.0/">
	<!ENTITY ns_ai "http://ns.adobe.com/AdobeIllustrator/10.0/">
	<!ENTITY ns_graphs "http://ns.adobe.com/Graphs/1.0/">
	<!ENTITY ns_vars "http://ns.adobe.com/Variables/1.0/">
	<!ENTITY ns_imrep "http://ns.adobe.com/ImageReplacement/1.0/">
	<!ENTITY ns_sfw "http://ns.adobe.com/SaveForWeb/1.0/">
	<!ENTITY ns_custom "http://ns.adobe.com/GenericCustomNamespace/1.0/">
	<!ENTITY ns_adobe_xpath "http://ns.adobe.com/XPath/1.0/">
]>
<svg version="1.1" id="Layer_1" xmlns:x="&ns_extend;" xmlns:i="&ns_ai;" xmlns:graph="&ns_graphs;"
	 xmlns="http://www.w3.org/2000/svg" xmlns:xlink="http://www.w3.org/1999/xlink" x="0px" y="0px" viewBox="0 0 30 37"
	 style="enable-background:new 0 0 30 37;" xml:space="preserve">
<style type="text/css">
	.st0{fill:#A3CCDC;}
	.st1{fill:#F4BB14;}
	.st2{fill:#141C44;}
</style>
<metadata>
	<sfw  xmlns="&ns_sfw;">
		<slices></slices>
		<sliceSourceBounds  bottomLeftOrigin="true" height="29" width="27" x="1.5" y="-33.5"></sliceSourceBounds>
	</sfw>
</metadata>
<circle class="st0" cx="19" cy="12.8" r="4.8"/>
<path class="st1" d="M14.9,37C7.5,37,1.5,31,1.5,23.6c0-4.9,2.7-9.5,7-11.8c0.9-0.5,2-0.2,2.5,0.7c0.5,0.9,0.2,2-0.7,2.5
	c-3.2,1.7-5.1,5-5.1,8.6c0,5.4,4.4,9.8,9.8,9.8c2.4,0,4.7-0.9,6.5-2.5c0.8-0.7,1.9-0.6,2.6,0.2c0.7,0.8,0.6,1.9-0.2,2.6
	C21.4,35.8,18.2,37,14.9,37z"/>
<path class="st2" d="M20,19.2c-0.6-0.1-1.2-0.2-1.8-0.2c-2.3,0-4.5,0.7-6.3,2.1c-1.5,1.1-2.6,2.6-3.3,4.2c0.4,1.2,1,2.3,2,3.1
	c0.1-0.4,0.1-0.8,0.3-1.2c1-3.3,4-5.5,7.4-5.5c1.2,0,2.3,0.3,3.3,0.7c2.6,1.2,4.4,3.9,4.4,7c0,0.4,0,0.9-0.1,1.3
	c1.1-0.9,2-2.1,2.7-3.4C27.7,23.3,24.3,20,20,19.2z"/>
</svg>
