<?xml version="1.0" encoding="utf-8"?>
<!-- Generator: Adobe Illustrator 23.0.1, SVG Export Plug-In . SVG Version: 6.00 Build 0)  -->
<!DOCTYPE svg PUBLIC "-//W3C//DTD SVG 1.1//EN" "http://www.w3.org/Graphics/SVG/1.1/DTD/svg11.dtd" [
	<!ENTITY ns_extend "http://ns.adobe.com/Extensibility/1.0/">
	<!ENTITY ns_ai "http://ns.adobe.com/AdobeIllustrator/10.0/">
	<!ENTITY ns_graphs "http://ns.adobe.com/Graphs/1.0/">
	<!ENTITY ns_vars "http://ns.adobe.com/Variables/1.0/">
	<!ENTITY ns_imrep "http://ns.adobe.com/ImageReplacement/1.0/">
	<!ENTITY ns_sfw "http://ns.adobe.com/SaveForWeb/1.0/">
	<!ENTITY ns_custom "http://ns.adobe.com/GenericCustomNamespace/1.0/">
	<!ENTITY ns_adobe_xpath "http://ns.adobe.com/XPath/1.0/">
]>
<svg version="1.1" id="Layer_1" xmlns:x="&ns_extend;" xmlns:i="&ns_ai;" xmlns:graph="&ns_graphs;"
	 xmlns="http://www.w3.org/2000/svg" xmlns:xlink="http://www.w3.org/1999/xlink" x="0px" y="0px" viewBox="0 0 1278.8 572.1"
	 style="enable-background:new 0 0 1278.8 572.1;" xml:space="preserve">
<style type="text/css">
	.st0{fill:#A0CEDB;}
	.st1{fill:#F1B816;}
	.st2{fill:#121E42;}
</style>
<metadata>
	<sfw  xmlns="&ns_sfw;">
		<slices></slices>
		<sliceSourceBounds  bottomLeftOrigin="true" height="550.2" width="1251.7" x="-505.2" y="-155"></sliceSourceBounds>
	</sfw>
</metadata>
<path class="st0" d="M247.7,383.9c-2.7-2.5-4.5-4.5-6.5-6.1c-16.4-13.3-35.8-18.6-56.3-20.7c-15.1-1.5-29.9-0.8-44.2,5.2
	c-22.9,9.6-36.7,26.6-40.9,51c-3.5,20.3-0.7,40,9.3,58.1c10.6,19.1,27.8,29.4,49,32.4c28.2,4,54.6-1.6,79.1-16.3
	c3.2-1.9,6-4.4,8.8-6.4c0.7,0.5,1,0.6,1,0.7c0.7,18.4,3.4,37.1-8,53.6c-9.8,14.3-24,22.5-40.2,27.1c-53.1,15.1-120.1-3.3-153.2-57.7
	c-21.3-35.1-24.3-73.2-13.8-112.4c8.5-31.8,26.5-57.2,54.1-75.5c18.5-12.3,39-19.3,61.1-21.5c17-1.7,33.9-1.9,50.6,2.2
	c18.6,4.6,34.6,13.6,43.9,31c3.5,6.6,5.6,14.3,6.5,21.8c1.1,9.9,0.4,20,0.4,30C248.4,381.2,248.1,381.9,247.7,383.9z"/>
<path class="st0" d="M887.8,483.4c2,10.1,6.9,17.2,15,22.1c7.7,4.7,16.3,6.9,25.2,7.4c23.8,1.3,47.3,0.4,69.7-9
	c2.8-1.2,5.5-2.7,8.3-4.1c7.3,20.4-3.6,46.3-23.2,56.2c-22.1,11.2-45.7,12.4-69.7,10.7c-21.6-1.5-41.5-8.1-58.7-21.4
	c-21.5-16.6-33.3-39.1-37-65.7c-3.6-26.3-0.4-52,12.2-75.7c20.2-38,52.1-56.9,95.2-56.9c21.8,0,42.3,4.7,60.7,16.8
	c22.8,15.1,34,36.7,34.8,63.9c0.1,4.8,0.1,9.7-0.7,14.4c-3,17.4-14.1,27.7-30.2,33.3c-18.4,6.4-37.5,7.3-56.7,7.9
	c-13.2,0.3-26.3,0.1-39.5,0.2C891.6,483.4,890,483.4,887.8,483.4z M886.1,436.6c14.1,0,27.4,0.2,40.7-0.1c5.3-0.1,10.6-1,15.7-2.3
	c10.1-2.4,13.4-9.4,9.2-18.9c-1.1-2.5-2.9-4.9-4.9-6.7c-11.5-10.5-35.1-10.7-47.8-0.1C890.5,415.6,886.4,425,886.1,436.6z"/>
<path class="st0" d="M1263.7,562.3c-16.7-0.8-32.5-0.7-48.1-2.6c-13.8-1.7-21.2-10.8-23.1-24.6c-0.7-4.9-1-9.9-1-14.9
	c-0.1-23.7,0.1-47.3-0.1-71c-0.1-7.1-0.7-14.4-2.1-21.3c-2.3-11.3-9.2-18.7-20.9-20.8c-11.4-2-22.6-2.1-32,6.4
	c-6.4,5.8-9.3,13.5-10.1,21.7c-0.8,8.4-0.9,17-0.9,25.4c-0.1,31.8,0,63.7,0,95.5c0,1.6,0,3.2,0,5.4c-15.4-0.6-30.4,1.6-45.2-2.4
	c-16.7-4.5-26.3-16.3-26.6-36c-0.5-30.5-0.8-61,0.8-91.4c2-38,28.3-68.5,66.5-79.1c30.5-8.5,61.1-7.9,90.7,3.5
	c26.6,10.2,42.5,30.5,48.3,58.1c2.4,11.3,3.5,23.1,3.7,34.7c0.5,34.7,0.2,69.3,0.2,104C1263.7,555.5,1263.7,558.1,1263.7,562.3z"/>
<path class="st0" d="M697.2,406.8c-2.1,0-4.2,0-6.3,0c-28,0-56-0.1-84,0.1c-5,0-7-1.3-6.4-6.4c0.4-4.1,0.3-8.3,0.1-12.5
	c-1.1-19.6,15.4-33.9,33.6-34.2c38.5-0.7,77-0.6,115.4-0.1c28.7,0.4,45.3,30.2,31.7,55.4c-8.4,15.7-20.5,28.2-33.1,40.4
	c-14.8,14.3-29.8,28.6-44.4,43.1c-3.7,3.7-6.5,8.2-10.5,13.4c3.5,0.2,5.4,0.5,7.3,0.5c27.7,0,55.3,0,83-0.2c4.6,0,6.1,1.4,5.8,6
	c-0.4,5.6-0.5,11.4,0,17c1.3,16.6-11.1,27.7-25.2,31.3c-2.7,0.7-5.6,1-8.4,1c-38.3,0.1-76.6,0.4-114.9-0.2
	c-7.9-0.1-16.4-2.2-23.4-5.6c-14-6.8-19.5-22.5-15.2-38.5c3.7-13.6,12.1-24.4,21.8-34.1c21.1-20.8,42.4-41.4,63.6-62.1
	c3.9-3.8,7-8.3,10.5-12.5C697.8,407.9,697.5,407.4,697.2,406.8z"/>
<path class="st0" d="M437.2,303c0,16.7,0,33.2,0,50.3c2.3,0,4.1,0,5.9,0c16.7,0,33.3,0.1,50,0c3.9,0,5.3,1,5.1,5.1
	c-0.3,5.6-0.4,11.3,0,17c1.3,18.9-15.8,33-31,34.3c-8.1,0.7-16.3,0.4-24.5,0.5c-1.6,0-3.3,0-5.5,0c0,2.2,0,4,0,5.8
	c0,23.2,0,46.3,0,69.5c0,13.7,7.7,22.3,21.4,22c10.4-0.2,20.8-2.2,31.1-3.4c0.8-0.1,1.6-0.5,2.4-0.6c0.5-0.1,1,0.2,1.1,0.2
	c0,11.6,0.8,23.1-0.3,34.4c-0.7,8.2-6.8,14-13.8,18c-25.2,14.5-67.9,10.7-90.2-8c-11.9-10-18.3-23.2-20.6-38.3
	c-1.3-8.8-1.9-17.9-2-26.8c-0.2-39.1,0.2-78.3-0.2-117.4c-0.2-21.6,9.4-37.6,26.2-49.9C405.6,306.1,419.9,300.8,437.2,303z"/>
<path class="st1" d="M106.2,99.5c-3.8-3.1-7.1-5.7-11.3-9.1c6.8-7.5,13-15.2,20-22c18.3-17.8,39.6-31.2,63.6-40
	c24.3-8.8,49.6-12.6,75.4-10.6c44.5,3.6,83,20.8,114.8,52.3c25.7,25.5,42.5,55.9,49.9,91.5c4.9,23.5,5.2,46.9,1.2,70.4
	c-4.9,28.4-16.7,54-34,77.1c-10.8,14.3-23.6,26.5-37.9,37.3c-0.7,0.6-2.7,0.9-2.9,0.6c-2.4-3.1-4.7-6.4-6.5-9.8
	c-0.3-0.6,1.3-2.8,2.4-3.7c23.6-18,41.6-40.3,53.4-67.5c12.4-28.6,16.5-58.2,12.3-89.2c-4.4-32.5-17.2-61.1-38.4-85.9
	c-19.9-23.3-44.4-40-73.5-49.8c-18.6-6.3-37.6-9.7-57.1-9c-41,1.4-77.5,14.9-108,42.8c-7.3,6.7-13.7,14.3-20.5,21.5
	C108.2,97.3,107.4,98.3,106.2,99.5z"/>
<g>
	<g>
		<path class="st2" d="M239.1,250c-8.4-0.6-16.2-0.6-23.8-1.8c-6.8-1-11.8-7.3-12.1-14.7c-0.5-12.3-0.3-24.6-0.6-37
			c-0.1-4.6-0.4-9.3-1.4-13.9c-1.3-6.4-6.1-9.6-13.2-9.8c-8.4-0.2-13.4,2.7-14.9,9.4c-1.1,4.8-1.5,9.9-1.6,14.8
			c-0.2,15.8-0.2,31.6,0,47.5c0,3.6-0.8,5.3-4.7,4.9c-5.1-0.5-10.3-0.3-15.4-1c-10.5-1.4-16.2-7.9-16.5-18.5
			c-0.2-8.2-0.1-16.3-0.1-24.5c0-30.3,0-60.6,0-90.9c0-1.2,0-2.3,0-4.6c7.7,0.5,15.2,0.2,22.3,1.6c7.6,1.5,12.7,8.5,13,16.3
			c0.3,8.7,0.1,17.5,0.1,28c6.2-7.4,12.8-11,20.8-12.2c29.1-4.4,46.9,14.7,47.9,39.5c0.9,20.3,0.2,40.6,0.2,61
			C239.3,245.8,239.2,247.2,239.1,250z"/>
		<path class="st2" d="M349.9,218.6c2.9,15.3-3.3,26.7-18.6,30.4c-18.7,4.6-37.5,4.9-54.6-6.6c-11.3-7.6-17.4-18.5-20.2-31.4
			c-5.2-23.6,5.2-48.5,25.4-61.4c20-12.8,53.8-7.8,67.3,10.3c6.3,8.5,9.6,18.3,7.6,29c-2.1,11.6-10.2,18.5-23,19.6
			c-13.7,1.2-27.4,1.9-41.5,2.9c0.3,4,2.8,7,6.6,9c8.7,4.8,18.2,4.9,27.6,3.5c7.3-1.1,14.4-3.6,21.6-5.4
			C348.6,218.4,349.3,218.6,349.9,218.6z M291.6,186.1c8.1,0,16.2,0.2,24.3-0.1c3.2-0.1,7.2-1.2,6.9-5c-0.3-3-2.4-7-4.9-8.2
			c-3.6-1.8-8.2-2.2-12.4-2.1C297.1,170.9,291.4,177.6,291.6,186.1z"/>
		<path class="st2" d="M49.2,150.1c-12.8,0-24.7,0-36.9,0c0-5.6-0.5-10.8,0.1-15.8c1.1-7.9,9.3-14.4,18.6-14.5
			c29.5-0.2,59-0.1,88.5,0c1.2,0,3.5,1.4,3.6,2.2c0.7,9,1.5,18.5-7.8,24.1c-3.5,2.1-7.9,3.6-12,4.1c-5.7,0.7-11.6,0.2-18,0.2
			c0,2.2,0,3.9,0,5.7c0,29.5-0.1,59,0.1,88.5c0,4.1-1.2,5.3-5.1,5c-5.9-0.5-12-0.2-17.9-1.1c-8.3-1.3-13.2-7.8-13.2-16.2
			c0-25.3,0-50.7,0-76C49.2,154.5,49.2,152.7,49.2,150.1z"/>
		<path class="st2" d="M331.7,433.8c1.2,9.4-0.3,18.6-1.7,28.1c-1.5,9.4-0.5,19.3-0.6,28.9c-0.1,9.5-0.3,19,0.1,28.5
			c0.3,9.3-1.6,18.8,1.2,28c0.7,0.1,1.4,0.1,2,0.2c0.5-1.7,1.5-3.4,1.5-5.1c0.1-47,0.3-94-0.1-141c-0.1-10.7-3.1-21.1-10.8-29.3
			c-10.3-11-23.3-10-31.9,2.6c-5.5,8-8.4,16.8-8.4,26.6c0,33.7,0,67.3,0.1,101c0,3.9-0.2,9.2,5.2,9.1c5.1-0.1,5.2-5.2,5.2-9.3
			c0-22,0.3-44-0.4-65.9c-0.2-6.1-3.3-12.4-6.1-18.1c-3.1-6.4-3.4-12.6-1.1-20.6c2.5,2.8,4.4,4.7,6.1,6.8c8.4,10.5,11,23,11.3,35.9
			c0.5,20.8,0.5,41.7-0.1,62.5c-0.2,6-2.1,12.5-5,17.9c-4.7,8.6-15.4,8.5-20.1-0.2c-2.7-4.9-4.9-10.9-5-16.4
			c-0.3-36.1-0.3-72.3,0.3-108.4c0.2-12.2,4.8-23.4,12.4-33.1c14.3-18.3,35.4-16.8,48.1,3.8c7.2,11.7,9.7,24.4,9.7,38.1
			c-0.2,47.2,0,94.3-0.2,141.5c0,3.7-0.9,7.7-2.6,11c-3.8,7.5-12.2,8.2-16.8,1.2c-2.4-3.7-4.2-8.6-4.3-12.9
			c-0.4-26.7-0.3-53.3-0.1-80c0.1-9.9,3-19.3,8.1-27.9c0.8-1.3,1.8-2.5,2.7-3.7C330.8,433.4,331.2,433.6,331.7,433.8z"/>
		<path class="st2" d="M569.2,433.9c0,37.4,0,74.9,0.1,112.3c0,0.3,1,0.6,2.6,1.6c0.5-3.3,1.2-5.9,1.2-8.6
			c0.1-44.2,0.2-88.3,0-132.5c0-11.2-1.5-22.1-8.3-31.7c-10.8-15.2-26.7-14.2-36.3,2.3c-4.8,8.2-7.1,17.4-7,27.1
			c0.1,32.3,0,64.7,0.1,97c0,2.8,1,5.9,2.6,8.2c2,3,5,2.6,6.6-0.8c1-2,1.5-4.4,1.6-6.6c0.1-21,0.2-42-0.1-63
			c-0.1-8-1.9-15.7-6.8-22.5c-3.5-4.9-3.3-10.7-1.9-16.3c0.7-2.9,2.5-2.1,4-0.5c8,8.7,13.3,19.1,13.8,30.7
			c1.1,24.6,1.2,49.3,0.9,73.9c-0.1,5.6-2.9,11.5-5.8,16.5c-4,7-12.1,7.2-17.8,1.4c-4.5-4.6-6.3-10.3-6.3-16.3
			c-0.1-37.2-0.1-74.3,0.1-111.5c0.1-11.8,4.7-22.4,11.7-31.7c14-18.9,35.1-17.8,48.2,2.4c6.8,10.5,10.1,22.3,10.2,34.8
			c0.2,48.5,0.1,97-0.1,145.5c0,4.2-1.7,8.8-3.9,12.4c-3.9,6.3-11.3,6.4-15.1,0.2c-2.5-4-4.6-9.1-4.7-13.7
			c-0.4-26.3-0.4-52.7-0.1-79c0.1-10.7,3.4-20.8,8.9-30.1c0.5-0.8,0.8-1.8,1.3-2.6C568.7,433.2,568.9,433.6,569.2,433.9z"/>
		<path class="st2" d="M323.6,320.9c-1.8,4.9-3,10-5.4,14.6c-4.6,8.5-12.6,9.1-19,1.9c-6.8-7.8-7.7-29.2,2-36.7
			c5.4-4.1,10.7-4.2,15.2,1C321.3,307,322.7,313.5,323.6,320.9z"/>
		<path class="st2" d="M562.2,319.2c-0.7,7.7-2.1,14.8-8,20.1c-5,4.4-11.7,3.7-15.7-1.5c-6.5-8.6-7.5-23.2-2.1-32.4
			c2.4-4.1,5.4-7.7,10.7-7.8c5.6-0.1,8.9,3.9,11,8C560.2,309.7,560.9,314.6,562.2,319.2z"/>
	</g>
</g>
</svg>
