<svg width="229" height="58" viewBox="0 0 229 58" fill="none" xmlns="http://www.w3.org/2000/svg">
<path d="M78.6316 39.6399L72.9535 15.8711H77.8585L81.6734 32.6439L86.1348 15.8711H90.4948L94.9181 32.6439L98.7331 15.8711H103.638L97.9726 39.6399H93.131L88.3148 22.8672L83.4732 39.6399H78.6316Z" fill="white"/>
<path d="M112.117 39.8051C110.71 39.8051 109.494 39.6654 108.492 39.3734C107.491 39.0814 106.667 38.5989 106.034 37.9133C105.4 37.2276 104.944 36.3134 104.652 35.1834C104.36 34.0534 104.221 32.644 104.221 30.968C104.221 29.2158 104.36 27.7556 104.652 26.6129C104.944 25.4702 105.4 24.5687 106.034 23.9084C106.667 23.2609 107.491 22.7911 108.505 22.5245C109.519 22.2578 110.723 22.1182 112.117 22.1182C113.549 22.1182 114.766 22.2578 115.78 22.5372C116.781 22.8165 117.605 23.2863 118.239 23.9338C118.873 24.5814 119.329 25.4829 119.62 26.6383C119.912 27.781 120.051 29.2285 120.051 30.9553C120.051 32.6694 119.912 34.1042 119.633 35.2469C119.354 36.3896 118.911 37.3038 118.29 37.964C117.669 38.6243 116.845 39.1068 115.831 39.3734C114.804 39.6654 113.562 39.8051 112.117 39.8051ZM112.117 36.0087C112.7 36.0087 113.182 35.9579 113.575 35.8436C113.968 35.7421 114.297 35.5135 114.538 35.1834C114.779 34.8533 114.969 34.3454 115.096 33.6598C115.222 32.9741 115.286 32.0726 115.286 30.9553C115.286 29.8253 115.222 28.9111 115.096 28.2381C114.969 27.5652 114.779 27.0573 114.538 26.7272C114.297 26.3971 113.968 26.1812 113.575 26.0669C113.182 25.9654 112.688 25.9019 112.117 25.9019C111.56 25.9019 111.091 25.9527 110.685 26.0669C110.292 26.1685 109.963 26.3971 109.709 26.7272C109.456 27.0573 109.265 27.5652 109.151 28.2381C109.037 28.9111 108.974 29.8126 108.974 30.9553C108.974 32.0726 109.037 32.9741 109.151 33.6598C109.265 34.3454 109.456 34.8533 109.709 35.1834C109.963 35.5135 110.292 35.7294 110.685 35.8436C111.078 35.9579 111.56 36.0087 112.117 36.0087Z" fill="white"/>
<path d="M123.182 39.64V22.3848H126.845L127.935 25.0131C128.556 24.2259 129.253 23.5402 130.039 22.9943C130.825 22.4356 131.75 22.1562 132.814 22.1562C133.043 22.1562 133.296 22.1689 133.537 22.1816C133.778 22.207 134.018 22.2451 134.221 22.3086V27.197C133.904 27.1589 133.562 27.1208 133.207 27.0827C132.852 27.0446 132.523 27.0319 132.193 27.0319C131.572 27.0319 131.015 27.0954 130.508 27.2351C130.001 27.3747 129.544 27.5779 129.126 27.8445C128.708 28.1112 128.315 28.4667 127.922 28.8857V39.6147H123.182V39.64Z" fill="white"/>
<path d="M136.743 39.64V15.1221H141.496V28.3651H143.512L147.301 22.3848H152.117L147.048 30.5109L152.624 39.64H147.808L143.448 32.6694H141.496V39.64H136.743Z" fill="white"/>
<path d="M155.704 39.64V26.2066H153.271V23.1593L155.704 22.3848V21.2294C155.704 19.7692 155.907 18.5757 156.3 17.6488C156.693 16.7219 157.314 16.0363 158.138 15.5919C158.974 15.1602 160.077 14.9316 161.446 14.9316C162.193 14.9316 162.878 14.9824 163.486 15.0967C164.095 15.1983 164.602 15.3126 165.007 15.4141V18.8169H162.384C161.889 18.8169 161.509 18.8931 161.23 19.0455C160.951 19.1978 160.761 19.4264 160.647 19.7311C160.546 20.0358 160.482 20.4548 160.482 20.9627V22.3721H164.842V26.1939H160.482V39.6273H155.704V39.64Z" fill="white"/>
<path d="M174.5 39.8051C173.094 39.8051 171.877 39.6654 170.876 39.3734C169.874 39.0814 169.05 38.5989 168.417 37.9133C167.783 37.2276 167.327 36.3134 167.035 35.1834C166.744 34.0534 166.604 32.644 166.604 30.968C166.604 29.2158 166.744 27.7556 167.035 26.6129C167.327 25.4702 167.783 24.5687 168.417 23.9084C169.05 23.2609 169.874 22.7911 170.888 22.5245C171.902 22.2578 173.106 22.1182 174.5 22.1182C175.933 22.1182 177.149 22.2578 178.163 22.5372C179.165 22.8165 179.988 23.2863 180.622 23.9338C181.256 24.5814 181.712 25.4829 182.004 26.6383C182.295 27.781 182.435 29.2285 182.435 30.9553C182.435 32.6694 182.295 34.1042 182.016 35.2469C181.737 36.3896 181.294 37.3038 180.673 37.964C180.052 38.6243 179.228 39.1068 178.214 39.3734C177.187 39.6654 175.958 39.8051 174.5 39.8051ZM174.5 36.0087C175.083 36.0087 175.565 35.9579 175.958 35.8436C176.351 35.7421 176.68 35.5135 176.921 35.1834C177.162 34.8533 177.352 34.3454 177.479 33.6598C177.606 32.9741 177.669 32.0726 177.669 30.9553C177.669 29.8253 177.606 28.9111 177.479 28.2381C177.352 27.5652 177.162 27.0573 176.921 26.7272C176.68 26.3971 176.351 26.1812 175.958 26.0669C175.565 25.9654 175.071 25.9019 174.5 25.9019C173.943 25.9019 173.474 25.9527 173.068 26.0669C172.675 26.1685 172.346 26.3971 172.092 26.7272C171.839 27.0573 171.649 27.5652 171.535 28.2381C171.42 28.9111 171.357 29.8126 171.357 30.9553C171.357 32.0726 171.42 32.9741 171.535 33.6598C171.649 34.3454 171.839 34.8533 172.092 35.1834C172.346 35.5135 172.675 35.7294 173.068 35.8436C173.474 35.9579 173.943 36.0087 174.5 36.0087Z" fill="white"/>
<path d="M185.565 39.64V22.3848H189.228L190.318 25.0131C190.939 24.2259 191.636 23.5402 192.422 22.9943C193.208 22.4356 194.133 22.1562 195.198 22.1562C195.438 22.1562 195.679 22.1689 195.92 22.1816C196.161 22.207 196.402 22.2451 196.604 22.3086V27.197C196.288 27.1589 195.945 27.1208 195.59 27.0827C195.236 27.0446 194.906 27.0319 194.577 27.0319C193.955 27.0319 193.398 27.0954 192.891 27.2351C192.384 27.3747 191.928 27.5779 191.509 27.8445C191.091 28.1112 190.685 28.4667 190.305 28.8857V39.6147H185.565V39.64Z" fill="white"/>
<path d="M205.844 39.8432C204.792 39.8432 203.829 39.7035 202.942 39.4242C202.054 39.1449 201.294 38.6751 200.648 38.0275C200.001 37.38 199.507 36.4785 199.152 35.3612C198.797 34.2311 198.62 32.8218 198.62 31.1077C198.62 29.3555 198.784 27.8953 199.101 26.7399C199.418 25.5844 199.9 24.6703 200.533 23.9973C201.167 23.3244 201.94 22.8419 202.853 22.5626C203.778 22.2832 204.805 22.1436 205.971 22.1436C207.023 22.1436 208.024 22.207 208.975 22.3213C209.925 22.4356 210.926 22.6514 211.978 22.9435V25.6733H207.454C206.465 25.6733 205.679 25.813 205.084 26.105C204.488 26.3971 204.057 26.9303 203.778 27.7048C203.512 28.4921 203.373 29.6094 203.373 31.0696C203.373 32.5043 203.512 33.5963 203.778 34.3454C204.044 35.0945 204.488 35.6024 205.096 35.8563C205.705 36.1103 206.516 36.2373 207.517 36.2373H212.232V38.9417C211.7 39.1195 211.078 39.2718 210.369 39.4115C209.659 39.5512 208.924 39.6528 208.138 39.7289C207.352 39.8051 206.592 39.8432 205.844 39.8432Z" fill="white"/>
<path d="M222.105 39.8051C220.204 39.8051 218.683 39.5512 217.555 39.0433C216.414 38.5354 215.603 37.6466 215.096 36.3642C214.589 35.0818 214.336 33.3042 214.336 31.0315C214.336 28.6952 214.577 26.8922 215.046 25.5971C215.515 24.3147 216.313 23.4133 217.416 22.8927C218.531 22.3848 220.039 22.1182 221.94 22.1182C223.651 22.1182 225.02 22.2959 226.047 22.6387C227.074 22.9816 227.821 23.5783 228.278 24.4417C228.734 25.2924 228.962 26.5113 228.962 28.0731C228.962 29.2285 228.734 30.1427 228.278 30.8156C227.821 31.4886 227.175 31.9711 226.338 32.2631C225.502 32.5551 224.526 32.6948 223.385 32.6948H219.051C219.089 33.5709 219.228 34.2692 219.456 34.8025C219.684 35.3231 220.103 35.704 220.711 35.9325C221.319 36.1611 222.207 36.2753 223.36 36.2753H228.392V39.0687C227.555 39.2464 226.643 39.4115 225.654 39.5639C224.653 39.7289 223.474 39.8051 222.105 39.8051ZM218.987 29.876H222.904C223.55 29.876 224.019 29.7491 224.311 29.4951C224.615 29.2412 224.754 28.7714 224.754 28.1112C224.754 27.489 224.653 26.9938 224.463 26.6129C224.273 26.232 223.968 25.9654 223.563 25.813C223.157 25.6479 222.612 25.5718 221.928 25.5718C221.205 25.5718 220.622 25.6987 220.191 25.94C219.76 26.1812 219.456 26.6256 219.266 27.2478C219.089 27.8699 218.987 28.746 218.987 29.876Z" fill="white"/>
<path d="M56.3121 24.314C53.5491 21.2159 47.5161 20.2255 38.4666 25.6091C39.8861 26.5867 41.2803 27.3485 42.5731 27.9199C48.7582 24.8218 52.269 25.7741 53.397 27.0311C54.1194 27.831 54.1321 28.923 53.435 29.7483C52.2943 31.0815 48.5047 32.1734 41.6225 28.4151C41.6352 28.4024 41.6605 28.4024 41.6732 28.3897C39.7214 27.4628 37.5667 26.1423 35.5008 24.2886C35.4501 24.2378 35.3867 24.187 35.336 24.1489C35.3234 24.1489 35.3234 24.1362 35.3107 24.1362C34.3981 23.3236 33.3462 22.2443 32.4336 20.9619L32.3703 20.8731C32.3322 20.8223 32.2942 20.7715 32.2562 20.7207C31.5337 21.7492 30.6972 22.8411 29.7213 23.9711C30.0889 24.4409 30.4564 24.8853 30.8367 25.3043L30.8493 25.2916C33.004 27.6279 35.4374 29.4436 37.7695 30.8529C37.7695 30.8529 37.7822 30.8529 37.7822 30.8402C38.2258 31.1196 38.6694 31.3608 39.1003 31.6147C41.5465 32.9606 43.7645 33.824 45.2474 34.3319C50.6973 35.9571 54.4616 34.7382 56.4262 32.4274C58.4287 30.0403 58.3907 26.6375 56.3121 24.314Z" fill="white"/>
<path d="M29.2144 23.2859L29.2271 23.2986C30.203 22.1686 31.0395 21.0767 31.7493 20.0482C31.7239 20.0228 31.6986 19.9847 31.6859 19.9593C39.5567 8.30345 35.5516 3.05958 34.056 1.67561C31.5465 -0.647946 27.5921 -0.533673 25.0445 1.92955C22.0534 4.82447 21.1282 10.7159 26.2739 19.0832C27.3132 17.8008 28.1244 16.5946 28.7835 15.5027C25.9444 10.2842 26.0331 6.52587 27.7568 4.86256C28.3272 4.31659 29.037 4.03725 29.7467 4.03725C30.3551 4.03725 30.9508 4.2531 31.4071 4.67211C32.4844 5.67517 33.1815 8.36694 31.0648 13.0521C30.4058 14.6774 29.1257 17.1533 26.7936 19.9085C26.8063 19.9212 26.8063 19.9339 26.8189 19.9339C24.2714 23.2352 21.483 24.9239 21.4704 24.9366L21.3056 25.0508C21.1662 25.1524 21.0394 25.2413 20.9 25.3429C21.952 26.0158 23.1054 26.8538 24.3221 27.8442C25.3741 27.0823 27.2879 25.5714 29.2144 23.2859Z" fill="white"/>
<path d="M4.35999 30.5486C3.72627 29.8375 3.82767 28.7456 4.6008 27.8314C5.32324 26.9807 6.76812 26.2062 8.97345 26.2062C9.97472 26.2062 11.1408 26.3712 12.4716 26.7648C14.0178 27.0696 18.099 28.2885 22.6998 32.834C23.8024 33.8498 25.0699 35.1576 26.0585 36.5669C26.1599 36.7066 26.2486 36.8463 26.35 36.9859C27.0724 35.8305 27.8709 34.6497 28.7201 33.4816C26.9964 31.2596 24.8924 29.3677 23.5996 28.3139C23.5996 28.3139 23.5996 28.3139 23.6123 28.3139C22.3829 27.3235 21.2169 26.5109 20.1649 25.8507C20.1522 25.8634 20.1269 25.8761 20.1142 25.8888C10.8619 20.2894 4.43604 21.8765 1.62233 25.1777C-0.468934 27.6409 -0.54498 31.0437 1.44489 33.2657C2.75035 34.7259 7.64264 38.4461 19.4932 31.1072C18.0736 30.028 16.7555 29.2535 15.6148 28.7202C8.9481 32.4023 5.39929 31.7167 4.35999 30.5486Z" fill="white"/>
<path d="M29.5059 42.1414C33.0674 48.8835 32.3449 52.4514 31.1916 53.4926C30.3931 54.2163 29.1003 54.0766 28.1244 53.1497C26.426 51.5245 26.0458 48.109 28.1244 43.4492C28.9229 41.5574 30.241 39.1322 32.3323 36.7198C34.563 33.8249 36.312 31.9838 36.7303 31.5648C36.8317 31.4886 36.9457 31.4124 37.0471 31.3363C35.9318 30.6506 34.7911 29.8634 33.6757 28.9746C32.9533 29.7364 31.293 31.5394 29.2397 34.2058C29.2397 34.2058 29.2397 34.2058 29.2397 34.1931C27.3893 36.6817 25.843 39.2846 24.6643 41.4685C21.407 48.4391 22.6491 53.4545 25.4248 56.0955C26.7556 57.3652 28.3779 58 29.9495 58C31.331 58 32.6872 57.5048 33.7898 56.5145C35.2347 55.2067 38.9483 50.2929 31.9394 38.3958C30.9381 39.6909 30.1269 40.9733 29.5059 42.1414Z" fill="white"/>
</svg>
