<svg width="230" height="58" viewBox="0 0 230 58" fill="none" xmlns="http://www.w3.org/2000/svg">
<g clip-path="url(#clip0_3173_24204)">
<path d="M78.853 39.6399L73.1749 15.8711H78.0799L81.8949 32.6439L86.3562 15.8711H90.7162L95.1396 32.6439L98.9545 15.8711H103.86L98.1941 39.6399H93.3525L88.5362 22.8672L83.6946 39.6399H78.853Z" fill="#00ACEA"/>
<path d="M112.339 39.8051C110.932 39.8051 109.715 39.6654 108.714 39.3734C107.712 39.0814 106.889 38.5989 106.255 37.9133C105.621 37.2276 105.165 36.3134 104.873 35.1834C104.582 34.0534 104.443 32.644 104.443 30.968C104.443 29.2158 104.582 27.7556 104.873 26.6129C105.165 25.4702 105.621 24.5687 106.255 23.9084C106.889 23.2609 107.712 22.7911 108.726 22.5245C109.74 22.2578 110.944 22.1182 112.339 22.1182C113.771 22.1182 114.988 22.2578 116.001 22.5372C117.003 22.8165 117.827 23.2863 118.46 23.9338C119.094 24.5814 119.55 25.4829 119.842 26.6383C120.133 27.781 120.273 29.2285 120.273 30.9553C120.273 32.6694 120.133 34.1042 119.855 35.2469C119.576 36.3896 119.132 37.3038 118.511 37.964C117.89 38.6243 117.066 39.1068 116.052 39.3734C115.026 39.6654 113.783 39.8051 112.339 39.8051ZM112.339 36.0087C112.922 36.0087 113.403 35.9579 113.796 35.8436C114.189 35.7421 114.519 35.5135 114.759 35.1834C115 34.8533 115.19 34.3454 115.317 33.6598C115.444 32.9741 115.507 32.0726 115.507 30.9553C115.507 29.8253 115.444 28.9111 115.317 28.2381C115.19 27.5652 115 27.0573 114.759 26.7272C114.519 26.3971 114.189 26.1812 113.796 26.0669C113.403 25.9654 112.909 25.9019 112.339 25.9019C111.781 25.9019 111.312 25.9527 110.906 26.0669C110.514 26.1685 110.184 26.3971 109.93 26.7272C109.677 27.0573 109.487 27.5652 109.373 28.2381C109.259 28.9111 109.195 29.8126 109.195 30.9553C109.195 32.0726 109.259 32.9741 109.373 33.6598C109.487 34.3454 109.677 34.8533 109.93 35.1834C110.184 35.5135 110.514 35.7294 110.906 35.8436C111.299 35.9579 111.781 36.0087 112.339 36.0087Z" fill="#00ACEA"/>
<path d="M123.403 39.64V22.3848H127.066L128.156 25.0131C128.777 24.2259 129.474 23.5402 130.26 22.9943C131.046 22.4356 131.971 22.1562 133.036 22.1562C133.264 22.1562 133.517 22.1689 133.758 22.1816C133.999 22.207 134.24 22.2451 134.443 22.3086V27.197C134.126 27.1589 133.784 27.1208 133.429 27.0827C133.074 27.0446 132.744 27.0319 132.415 27.0319C131.794 27.0319 131.236 27.0954 130.729 27.2351C130.222 27.3747 129.766 27.5779 129.348 27.8445C128.929 28.1112 128.536 28.4667 128.144 28.8857V39.6147H123.403V39.64Z" fill="#00ACEA"/>
<path d="M136.965 39.64V15.1221H141.718V28.3651H143.733L147.523 22.3848H152.339L147.269 30.5109L152.846 39.64H148.03L143.67 32.6694H141.718V39.64H136.965V39.64Z" fill="#00ACEA"/>
<path d="M155.926 39.64V26.2066H153.492V23.1593L155.926 22.3848V21.2294C155.926 19.7692 156.128 18.5757 156.521 17.6488C156.914 16.7219 157.535 16.0363 158.359 15.5919C159.196 15.1602 160.298 14.9316 161.667 14.9316C162.415 14.9316 163.099 14.9824 163.708 15.0967C164.316 15.1983 164.823 15.3126 165.229 15.4141V18.8169H162.605C162.111 18.8169 161.731 18.8931 161.452 19.0455C161.173 19.1978 160.983 19.4264 160.869 19.7311C160.767 20.0358 160.704 20.4548 160.704 20.9627V22.3721H165.064V26.1939H160.704V39.6273H155.926V39.64Z" fill="#FFA133"/>
<path d="M174.722 39.8051C173.315 39.8051 172.098 39.6654 171.097 39.3734C170.096 39.0814 169.272 38.5989 168.638 37.9133C168.004 37.2276 167.548 36.3134 167.257 35.1834C166.965 34.0534 166.826 32.644 166.826 30.968C166.826 29.2158 166.965 27.7556 167.257 26.6129C167.548 25.4702 168.004 24.5687 168.638 23.9084C169.272 23.2609 170.096 22.7911 171.11 22.5245C172.124 22.2578 173.328 22.1182 174.722 22.1182C176.154 22.1182 177.371 22.2578 178.385 22.5372C179.386 22.8165 180.21 23.2863 180.844 23.9338C181.477 24.5814 181.934 25.4829 182.225 26.6383C182.517 27.781 182.656 29.2285 182.656 30.9553C182.656 32.6694 182.517 34.1042 182.238 35.2469C181.959 36.3896 181.515 37.3038 180.894 37.964C180.273 38.6243 179.449 39.1068 178.435 39.3734C177.409 39.6654 176.179 39.8051 174.722 39.8051ZM174.722 36.0087C175.305 36.0087 175.786 35.9579 176.179 35.8436C176.572 35.7421 176.902 35.5135 177.143 35.1834C177.383 34.8533 177.574 34.3454 177.7 33.6598C177.827 32.9741 177.89 32.0726 177.89 30.9553C177.89 29.8253 177.827 28.9111 177.7 28.2381C177.574 27.5652 177.383 27.0573 177.143 26.7272C176.902 26.3971 176.572 26.1812 176.179 26.0669C175.786 25.9654 175.292 25.9019 174.722 25.9019C174.164 25.9019 173.695 25.9527 173.29 26.0669C172.897 26.1685 172.567 26.3971 172.314 26.7272C172.06 27.0573 171.87 27.5652 171.756 28.2381C171.642 28.9111 171.579 29.8126 171.579 30.9553C171.579 32.0726 171.642 32.9741 171.756 33.6598C171.87 34.3454 172.06 34.8533 172.314 35.1834C172.567 35.5135 172.897 35.7294 173.29 35.8436C173.695 35.9579 174.164 36.0087 174.722 36.0087Z" fill="#FFA133"/>
<path d="M185.786 39.64V22.3848H189.449L190.539 25.0131C191.16 24.2259 191.858 23.5402 192.643 22.9943C193.429 22.4356 194.354 22.1562 195.419 22.1562C195.66 22.1562 195.901 22.1689 196.141 22.1816C196.382 22.207 196.623 22.2451 196.826 22.3086V27.197C196.509 27.1589 196.167 27.1208 195.812 27.0827C195.457 27.0446 195.127 27.0319 194.798 27.0319C194.177 27.0319 193.619 27.0954 193.112 27.2351C192.605 27.3747 192.149 27.5779 191.731 27.8445C191.313 28.1112 190.907 28.4667 190.527 28.8857V39.6147H185.786V39.64Z" fill="#FFA133"/>
<path d="M206.065 39.8432C205.013 39.8432 204.05 39.7035 203.163 39.4242C202.276 39.1449 201.515 38.6751 200.869 38.0275C200.223 37.38 199.728 36.4785 199.373 35.3612C199.019 34.2311 198.841 32.8218 198.841 31.1077C198.841 29.3555 199.006 27.8953 199.323 26.7399C199.64 25.5844 200.121 24.6703 200.755 23.9973C201.389 23.3244 202.162 22.8419 203.074 22.5626C204 22.2832 205.026 22.1436 206.192 22.1436C207.244 22.1436 208.245 22.207 209.196 22.3213C210.147 22.4356 211.148 22.6514 212.2 22.9435V25.6733H207.675C206.686 25.6733 205.901 25.813 205.305 26.105C204.709 26.3971 204.278 26.9303 204 27.7048C203.733 28.4921 203.594 29.6094 203.594 31.0696C203.594 32.5043 203.733 33.5963 204 34.3454C204.266 35.0945 204.709 35.6024 205.318 35.8563C205.926 36.1103 206.737 36.2373 207.738 36.2373H212.453V38.9417C211.921 39.1195 211.3 39.2718 210.59 39.4115C209.88 39.5512 209.145 39.6528 208.359 39.7289C207.574 39.8051 206.813 39.8432 206.065 39.8432Z" fill="#FFA133"/>
<path d="M222.327 39.8051C220.425 39.8051 218.905 39.5512 217.777 39.0433C216.636 38.5354 215.825 37.6466 215.318 36.3642C214.811 35.0818 214.557 33.3042 214.557 31.0315C214.557 28.6952 214.798 26.8922 215.267 25.5971C215.736 24.3147 216.534 23.4133 217.637 22.8927C218.752 22.3848 220.261 22.1182 222.162 22.1182C223.873 22.1182 225.242 22.2959 226.268 22.6387C227.295 22.9816 228.043 23.5783 228.499 24.4417C228.955 25.2924 229.183 26.5113 229.183 28.0731C229.183 29.2285 228.955 30.1427 228.499 30.8156C228.043 31.4886 227.396 31.9711 226.56 32.2631C225.723 32.5551 224.747 32.6948 223.607 32.6948H219.272C219.31 33.5709 219.45 34.2692 219.678 34.8025C219.906 35.3231 220.324 35.704 220.932 35.9325C221.541 36.1611 222.428 36.2753 223.581 36.2753H228.613V39.0687C227.777 39.2464 226.864 39.4115 225.875 39.5639C224.874 39.7289 223.695 39.8051 222.327 39.8051ZM219.209 29.876H223.125C223.771 29.876 224.24 29.7491 224.532 29.4951C224.836 29.2412 224.976 28.7714 224.976 28.1112C224.976 27.489 224.874 26.9938 224.684 26.6129C224.494 26.232 224.19 25.9654 223.784 25.813C223.379 25.6479 222.834 25.5718 222.149 25.5718C221.427 25.5718 220.844 25.6987 220.413 25.94C219.982 26.1812 219.678 26.6256 219.488 27.2478C219.31 27.8699 219.209 28.746 219.209 29.876Z" fill="#FFA133"/>
<path d="M56.5335 24.314C53.7705 21.2159 47.7375 20.2255 38.688 25.6091C40.1076 26.5867 41.5017 27.3485 42.7945 27.9199C48.9796 24.8218 52.4904 25.7741 53.6184 27.0311C54.3409 27.831 54.3535 28.923 53.6564 29.7483C52.5158 31.0815 48.7261 32.1734 41.844 28.4151C41.8566 28.4024 41.882 28.4024 41.8947 28.3897C39.9428 27.4628 37.7882 26.1423 35.7222 24.2886C35.6716 24.2378 35.6082 24.187 35.5575 24.1489C35.5448 24.1489 35.5448 24.1362 35.5321 24.1362C34.6196 23.3236 33.5676 22.2443 32.6551 20.9619L32.5917 20.8731C32.5537 20.8223 32.5156 20.7715 32.4776 20.7207C31.7552 21.7492 30.9187 22.8411 29.9427 23.9711C30.3103 24.4409 30.6779 24.8853 31.0581 25.3043L31.0708 25.2916C33.2254 27.6279 35.6589 29.4436 37.991 30.8529C37.991 30.8529 38.0036 30.8529 38.0036 30.8402C38.4472 31.1196 38.8908 31.3608 39.3218 31.6147C41.7679 32.9606 43.9859 33.824 45.4688 34.3319C50.9188 35.9571 54.6831 34.7382 56.6476 32.4274C58.6501 30.0403 58.6121 26.6375 56.5335 24.314Z" fill="#FFA133"/>
<path d="M29.4358 23.2859L29.4485 23.2986C30.4244 22.1686 31.2609 21.0767 31.9707 20.0482C31.9453 20.0228 31.92 19.9847 31.9073 19.9593C39.7781 8.30345 35.773 3.05958 34.2774 1.67561C31.7679 -0.647946 27.8135 -0.533673 25.266 1.92955C22.2748 4.82447 21.3496 10.7159 26.4954 19.0832C27.5347 17.8008 28.3458 16.5946 29.0049 15.5027C26.1658 10.2842 26.2546 6.52587 27.9783 4.86256C28.5486 4.31659 29.2584 4.03725 29.9682 4.03725C30.5765 4.03725 31.1722 4.2531 31.6285 4.67211C32.7058 5.67517 33.4029 8.36694 31.2863 13.0521C30.6272 14.6774 29.3471 17.1533 27.015 19.9085C27.0277 19.9212 27.0277 19.9339 27.0404 19.9339C24.4928 23.2352 21.7045 24.9239 21.6918 24.9366L21.527 25.0508C21.3876 25.1524 21.2609 25.2413 21.1215 25.3429C22.1734 26.0158 23.3268 26.8538 24.5435 27.8442C25.5955 27.0823 27.5093 25.5714 29.4358 23.2859Z" fill="#00ACEA"/>
<path d="M4.58143 30.5486C3.94771 29.8375 4.0491 28.7456 4.82224 27.8314C5.54468 26.9807 6.98955 26.2062 9.19489 26.2062C10.1962 26.2062 11.3622 26.3712 12.693 26.7648C14.2393 27.0696 18.3204 28.2885 22.9212 32.834C24.0239 33.8498 25.2913 35.1576 26.2799 36.5669C26.3813 36.7066 26.47 36.8463 26.5714 36.9859C27.2938 35.8305 28.0923 34.6497 28.9415 33.4816C27.2178 31.2596 25.1139 29.3677 23.8211 28.3139C23.8211 28.3139 23.8211 28.3139 23.8338 28.3139C22.6043 27.3235 21.4383 26.5109 20.3863 25.8507C20.3737 25.8634 20.3483 25.8761 20.3356 25.8888C11.0834 20.2894 4.65747 21.8765 1.84377 25.1777C-0.247499 27.6409 -0.323545 31.0437 1.66633 33.2657C2.97178 34.7259 7.86408 38.4461 19.7146 31.1072C18.2951 30.028 16.9769 29.2535 15.8362 28.7202C9.16954 32.4023 5.62072 31.7167 4.58143 30.5486Z" fill="#FFA133"/>
<path d="M29.7273 42.1414C33.2888 48.8835 32.5664 52.4514 31.413 53.4926C30.6145 54.2163 29.3217 54.0766 28.3458 53.1497C26.6475 51.5245 26.2672 48.109 28.3458 43.4492C29.1443 41.5574 30.4624 39.1322 32.5537 36.7198C34.7844 33.8249 36.5334 31.9838 36.9517 31.5648C37.0531 31.4886 37.1672 31.4124 37.2686 31.3363C36.1532 30.6506 35.0125 29.8634 33.8972 28.9746C33.1747 29.7364 31.5144 31.5394 29.4612 34.2058C29.4612 34.2058 29.4612 34.2058 29.4612 34.1931C27.6107 36.6817 26.0644 39.2846 24.8857 41.4685C21.6284 48.4391 22.8705 53.4545 25.6462 56.0955C26.977 57.3652 28.5993 58 30.1709 58C31.5524 58 32.9086 57.5048 34.0113 56.5145C35.4561 55.2067 39.1697 50.2929 32.1608 38.3958C31.1595 39.6909 30.3484 40.9733 29.7273 42.1414Z" fill="#00ACEA"/>
</g>
<defs>
<clipPath id="clip0_3173_24204">
<rect width="229" height="58" fill="white" transform="translate(0.221436)"/>
</clipPath>
</defs>
</svg>
